<?xml version="1.0" encoding="UTF-8" standalone="no"?>
<!-- Created with Inkscape (http://www.inkscape.org/) -->

<svg
   xmlns:dc="http://purl.org/dc/elements/1.1/"
   xmlns:cc="http://creativecommons.org/ns#"
   xmlns:rdf="http://www.w3.org/1999/02/22-rdf-syntax-ns#"
   xmlns:svg="http://www.w3.org/2000/svg"
   xmlns="http://www.w3.org/2000/svg"
   xmlns:xlink="http://www.w3.org/1999/xlink"
   xmlns:sodipodi="http://sodipodi.sourceforge.net/DTD/sodipodi-0.dtd"
   xmlns:inkscape="http://www.inkscape.org/namespaces/inkscape"
   width="95mm"
   height="65mm"
   id="svg3217"
   sodipodi:version="0.32"
   inkscape:version="0.91 r13725"
   version="1.0"
   sodipodi:docname="carte de visiste_v1.0.svg"
   inkscape:output_extension="org.inkscape.output.svg.inkscape"
   inkscape:export-filename="/Users/brunoboissonnet/Documents/binfoservice/carte de visite/carte de visiste_v1.0.png"
   inkscape:export-xdpi="89"
   inkscape:export-ydpi="89">
  <defs
     id="defs3219">
    <linearGradient
       id="linearGradient3336">
      <stop
         style="stop-color:#28170b;stop-opacity:1;"
         offset="0"
         id="stop3338" />
      <stop
         style="stop-color:#000000;stop-opacity:0;"
         offset="1"
         id="stop3340" />
    </linearGradient>
    <linearGradient
       id="linearGradient3805">
      <stop
         style="stop-color:#28170b;stop-opacity:1;"
         offset="0"
         id="stop3807" />
      <stop
         id="stop3323"
         offset="1"
         style="stop-color:#140b05;stop-opacity:0.49803922;" />
    </linearGradient>
    <linearGradient
       id="linearGradient3797">
      <stop
         style="stop-color:#000000;stop-opacity:1;"
         offset="0"
         id="stop3799" />
      <stop
         style="stop-color:#000000;stop-opacity:0;"
         offset="1"
         id="stop3801" />
    </linearGradient>
    <inkscape:perspective
       sodipodi:type="inkscape:persp3d"
       inkscape:vp_x="0 : 526.18109 : 1"
       inkscape:vp_y="0 : 1000 : 0"
       inkscape:vp_z="744.09448 : 526.18109 : 1"
       inkscape:persp3d-origin="372.04724 : 350.78739 : 1"
       id="perspective3225" />
    <linearGradient
       inkscape:collect="always"
       xlink:href="#linearGradient3797"
       id="linearGradient3803"
       x1="761.57123"
       y1="291.89624"
       x2="360.97174"
       y2="542.1825"
       gradientUnits="userSpaceOnUse" />
    <linearGradient
       inkscape:collect="always"
       xlink:href="#linearGradient3805"
       id="linearGradient3811"
       x1="506.80038"
       y1="615.9707"
       x2="298.10413"
       y2="606.47168"
       gradientUnits="userSpaceOnUse" />
    <linearGradient
       inkscape:collect="always"
       xlink:href="#linearGradient3805"
       id="linearGradient3813"
       gradientUnits="userSpaceOnUse"
       x1="373.25977"
       y1="509.65094"
       x2="253.53117"
       y2="634.54425"
       gradientTransform="matrix(0.9999492,0,-1.5449395e-8,1.137935,-171.37379,-118.10748)" />
    <linearGradient
       inkscape:collect="always"
       xlink:href="#linearGradient3797"
       id="linearGradient3823"
       gradientUnits="userSpaceOnUse"
       x1="761.57123"
       y1="291.89624"
       x2="360.97174"
       y2="542.1825"
       gradientTransform="translate(-193.25245,-26.053587)" />
    <linearGradient
       inkscape:collect="always"
       xlink:href="#linearGradient3805"
       id="linearGradient3833"
       gradientUnits="userSpaceOnUse"
       gradientTransform="matrix(0.9999492,0,-1.5449395e-8,1.137935,-171.37379,-118.10748)"
       x1="373.25977"
       y1="509.65094"
       x2="253.53117"
       y2="634.54425" />
    <linearGradient
       inkscape:collect="always"
       xlink:href="#linearGradient3797"
       id="linearGradient3835"
       gradientUnits="userSpaceOnUse"
       gradientTransform="translate(-193.25245,-26.053587)"
       x1="761.57123"
       y1="291.89624"
       x2="360.97174"
       y2="542.1825" />
    <linearGradient
       inkscape:collect="always"
       xlink:href="#linearGradient3797"
       id="linearGradient3858"
       gradientUnits="userSpaceOnUse"
       gradientTransform="matrix(0.4596461,0,0,0.4596461,-180.12655,188.50109)"
       x1="761.57123"
       y1="291.89624"
       x2="360.97174"
       y2="542.1825" />
    <linearGradient
       inkscape:collect="always"
       xlink:href="#linearGradient3805"
       id="linearGradient3861"
       gradientUnits="userSpaceOnUse"
       gradientTransform="matrix(0.4596227,0,0,0.5230474,-165.89037,145.04934)"
       x1="373.25977"
       y1="509.65094"
       x2="253.53117"
       y2="634.54425" />
    <linearGradient
       inkscape:collect="always"
       xlink:href="#linearGradient3805"
       id="linearGradient3293"
       gradientUnits="userSpaceOnUse"
       gradientTransform="matrix(0.4596227,0,0,0.5230474,-165.89037,145.04934)"
       x1="373.25977"
       y1="509.65094"
       x2="253.53117"
       y2="634.54425" />
    <linearGradient
       inkscape:collect="always"
       xlink:href="#linearGradient3797"
       id="linearGradient3295"
       gradientUnits="userSpaceOnUse"
       gradientTransform="matrix(0.4596461,0,0,0.4596461,-180.12655,188.50109)"
       x1="761.57123"
       y1="291.89624"
       x2="360.97174"
       y2="542.1825" />
    <linearGradient
       inkscape:collect="always"
       xlink:href="#linearGradient3797"
       id="linearGradient3302"
       gradientUnits="userSpaceOnUse"
       gradientTransform="matrix(0.4596461,0,0,0.4596461,-127.43381,-58.705676)"
       x1="761.57123"
       y1="291.89624"
       x2="360.97174"
       y2="542.1825" />
  </defs>
  <sodipodi:namedview
     id="base"
     pagecolor="#fffff9"
     bordercolor="#666666"
     borderopacity="1.0"
     inkscape:pageopacity="0"
     inkscape:pageshadow="2"
     inkscape:zoom="2.4484606"
     inkscape:cx="135.40569"
     inkscape:cy="108.99751"
     inkscape:document-units="mm"
     inkscape:current-layer="layer1"
     showgrid="false"
     inkscape:window-width="1286"
     inkscape:window-height="956"
     inkscape:window-x="319"
     inkscape:window-y="128"
     units="mm"
     guidetolerance="10000"
     showguides="true"
     inkscape:guide-bbox="true"
     inkscape:window-maximized="0">
    <sodipodi:guide
       position="113.13231,230.34882"
       orientation="0,1"
       id="guide3382" />
    <sodipodi:guide
       position="113.13231,230.34882"
       orientation="0,1"
       id="guide3384" />
    <sodipodi:guide
       position="113.13231,230.34882"
       orientation="0,1"
       id="guide3386" />
    <sodipodi:guide
       position="113.13231,230.34882"
       orientation="0,1"
       id="guide3442" />
    <sodipodi:guide
       position="132.32804,0"
       orientation="0,1"
       id="guide3444" />
    <sodipodi:guide
       position="132.32804,0"
       orientation="0,1"
       id="guide3446" />
    <sodipodi:guide
       position="116.80809,17.153635"
       orientation="0,1"
       id="guide3448" />
    <sodipodi:guide
       position="116.80809,212.37834"
       orientation="0,1"
       id="guide3450" />
    <sodipodi:guide
       position="0,144.58064"
       orientation="1,0"
       id="guide3452" />
    <sodipodi:guide
       position="14.294696,124.15965"
       orientation="1,0"
       id="guide3454" />
    <sodipodi:guide
       position="337.35483,89.852376"
       orientation="1,0"
       id="guide3456" />
    <sodipodi:guide
       position="318.97593,87.810276"
       orientation="1,0"
       id="guide3458" />
    <sodipodi:guide
       position="123.75123,201.35101"
       orientation="0,1"
       id="guide3460" />
    <sodipodi:guide
       position="125.38491,27.772552"
       orientation="0,1"
       id="guide3462" />
    <sodipodi:guide
       position="24.913613,129.87752"
       orientation="1,0"
       id="guide3464" />
    <sodipodi:guide
       position="308.35702,96.387094"
       orientation="1,0"
       id="guide3466" />
  </sodipodi:namedview>
  <metadata
     id="metadata3222">
    <rdf:RDF>
      <cc:Work
         rdf:about="">
        <dc:format>image/svg+xml</dc:format>
        <dc:type
           rdf:resource="http://purl.org/dc/dcmitype/StillImage" />
        <dc:title></dc:title>
      </cc:Work>
    </rdf:RDF>
  </metadata>
  <g
     inkscape:label="Calque 1"
     inkscape:groupmode="layer"
     id="layer1"
     transform="translate(0,38.976373)">
    <rect
       style="opacity:1;fill:#ba7301;fill-opacity:1;stroke:none;stroke-width:13.19999981;stroke-linecap:round;stroke-linejoin:round;stroke-miterlimit:4;stroke-dasharray:none;stroke-dashoffset:0;stroke-opacity:1"
       id="rect2434"
       width="336.28793"
       height="231.29628"
       x="0.41444105"
       y="-39.466236" />
    <flowRoot
       style="font-style:normal;font-variant:normal;font-weight:normal;font-stretch:normal;font-size:12.08783627px;line-height:125%;font-family:AppleGothic;-inkscape-font-specification:AppleGothic;text-align:start;writing-mode:lr-tb;text-anchor:start;fill:#28170b;fill-opacity:1;stroke:none;stroke-width:1px;stroke-linecap:butt;stroke-linejoin:miter;stroke-opacity:1"
       id="flowRoot2505"
       xml:space="preserve"
       transform="translate(-4,12)"><flowRegion
         id="flowRegion2507"><rect
           y="60.049393"
           x="31.03174"
           height="138.60889"
           width="735.99365"
           id="rect2509"
           style="font-style:normal;font-variant:normal;font-weight:normal;font-stretch:normal;font-size:12.08783627px;line-height:125%;font-family:AppleGothic;-inkscape-font-specification:AppleGothic;text-align:start;writing-mode:lr-tb;text-anchor:start;fill:#28170b;fill-opacity:1" /></flowRegion><flowPara
         id="flowPara4130">04.90.87.76.62</flowPara><flowPara
         id="flowPara4132">06.61.58.36.93</flowPara><flowPara
         id="flowPara4134">contact@binfoservice.fr</flowPara><flowPara
         id="flowPara4136">www.binfoservice.fr</flowPara><flowPara
         id="flowPara4138">24 boulevard Jean Rey</flowPara><flowPara
         id="flowPara4140">30133 Les Angles</flowPara></flowRoot>    <flowRoot
       xml:space="preserve"
       id="flowRoot3337"
       style="font-style:normal;font-variant:normal;font-weight:bold;font-stretch:normal;font-size:18px;line-height:100%;font-family:AppleGothic;-inkscape-font-specification:'AppleGothic Bold';text-align:start;writing-mode:lr-tb;text-anchor:start;fill:#ffffff;fill-opacity:1;stroke:none;stroke-width:1px;stroke-linecap:butt;stroke-linejoin:miter;stroke-opacity:1"
       transform="translate(9.816051,-49.913837)"><flowRegion
         id="flowRegion3339"><rect
           id="rect3341"
           width="156.84885"
           height="17.992636"
           x="17.210348"
           y="43.877186"
           style="font-style:normal;font-variant:normal;font-weight:bold;font-stretch:normal;font-size:18px;line-height:100%;font-family:AppleGothic;-inkscape-font-specification:'AppleGothic Bold';text-align:start;writing-mode:lr-tb;text-anchor:start;fill:#ffffff;fill-opacity:1" /></flowRegion><flowPara
         id="flowPara3343">Bruno Boissonnet</flowPara></flowRoot>    <g
       id="g3468"
       transform="translate(4,14.274451)">
      <path
         inkscape:export-ydpi="203.55"
         inkscape:export-xdpi="203.55"
         inkscape:export-filename="C:\Documents and Settings\Claverie Marc\Bureau\b-info.png"
         sodipodi:nodetypes="ccccccccccccccccc"
         id="path3455"
         d="m 243.23937,42.864428 c 0,0 -1.25523,-1.653931 -3.48857,-2.100585 -1.28577,-0.257178 -14.57363,-1.778543 -16.69501,-1.051197 -3.14299,1.077593 -4.19996,4.995729 -4.24279,6.667231 l 0,18.122803 c 0.5455,4.970118 3.74503,6.897792 5.03074,6.909676 -0.0606,0 15.65919,-1.911837 16.0014,-2.000148 1.87893,-0.4849 2.96994,-2.303236 2.96994,-2.303236 0,0 -1.28655,2.97747 -2.90932,4.303417 -1.39409,1.03039 -1.69714,0.848535 -2.30324,1.03039 -1.51946,0.455821 -14.05316,2.876194 -15.45591,2.969949 -5.03074,0.303045 -10.84938,-3.48373 -10.98104,-8.347878 -0.0606,-2.485048 -0.0649,-22.534498 -0.0649,-22.534498 0,-5.528762 6.38595,-8.525857 10.18521,-8.272556 1.92865,0.128578 14.6335,1.967711 16.34785,2.267718 4.08525,0.714921 5.36321,3.672179 5.36321,3.672179 l 0.24245,0.666735 z"
         style="fill:#000000;fill-opacity:0.15294118;fill-rule:evenodd;stroke:none;stroke-width:1px;stroke-linecap:butt;stroke-linejoin:round;stroke-opacity:1"
         inkscape:connector-curvature="0" />
      <path
         inkscape:export-ydpi="203.55"
         inkscape:export-xdpi="203.55"
         inkscape:export-filename="C:\Documents and Settings\Claverie Marc\Bureau\b-info.png"
         sodipodi:nodetypes="ccccccccccccccccc"
         id="path3457"
         d="m 264.14105,55.727011 c 0,0 -1.25522,-1.65393 -3.48857,-2.100584 -1.28577,-0.257167 -14.57362,-1.778543 -16.69502,-1.051198 -3.14298,1.077605 -4.19995,4.995741 -4.24279,6.667232 l 0,18.122813 c 0.5455,4.970119 3.74505,6.897779 5.03075,6.909669 -0.0606,0 15.65918,-1.91184 16.00139,-2.00014 1.87894,-0.48491 2.96996,-2.303247 2.96996,-2.303247 0,0 -1.28655,2.977467 -2.90934,4.303417 -1.39408,1.03039 -1.69712,0.84853 -2.30324,1.03039 -1.51945,0.45582 -14.05316,2.8762 -15.45591,2.96996 -5.03074,0.30303 -10.84938,-3.48374 -10.98104,-8.347889 -0.0606,-2.485048 -0.0649,-22.534498 -0.0649,-22.534498 0,-5.528762 6.38593,-8.525846 10.18521,-8.272545 1.92863,0.128567 14.63349,1.96771 16.34783,2.267707 4.08526,0.714931 5.36321,3.672179 5.36321,3.672179 l 0.24246,0.666734 z"
         style="fill:#000000;fill-opacity:0.15294118;fill-rule:evenodd;stroke:none;stroke-width:1px;stroke-linecap:butt;stroke-linejoin:round;stroke-opacity:1"
         inkscape:connector-curvature="0" />
      <path
         inkscape:export-ydpi="203.55"
         inkscape:export-xdpi="203.55"
         inkscape:export-filename="C:\Documents and Settings\Claverie Marc\Bureau\b-info.png"
         sodipodi:nodetypes="ccccccccccccccccc"
         id="path3459"
         d="m 231.18072,66.981775 c 0,0 -1.25523,-1.653942 -3.48858,-2.100596 -1.28577,-0.257167 -14.57363,-1.778543 -16.69501,-1.051186 -3.14299,1.077582 -4.19996,4.995729 -4.24279,6.66722 l 0,18.12281 c 0.54549,4.97012 3.74504,6.8978 5.03074,6.90968 -0.0606,0 15.65919,-1.91185 16.0014,-2.00016 1.87893,-0.48489 2.96995,-2.30324 2.96995,-2.30324 0,0 -1.28657,2.97747 -2.90933,4.30342 -1.39409,1.0304 -1.69713,0.84855 -2.30325,1.0304 -1.51945,0.45581 -14.05315,2.87619 -15.45591,2.96994 -5.03074,0.30306 -10.84937,-3.48373 -10.98103,-8.34787 -0.0606,-2.48504 -0.0649,-22.534494 -0.0649,-22.534494 0,-5.528762 6.38595,-8.525868 10.18521,-8.272567 1.92865,0.128578 14.6335,1.967722 16.34785,2.267729 4.08525,0.714921 5.3632,3.672179 5.3632,3.672179 l 0.24247,0.666735 z"
         style="fill:#000000;fill-opacity:0.15294118;fill-rule:evenodd;stroke:none;stroke-width:1px;stroke-linecap:butt;stroke-linejoin:round;stroke-opacity:1"
         inkscape:connector-curvature="0" />
      <text
         inkscape:export-ydpi="203.55"
         inkscape:export-xdpi="203.55"
         inkscape:export-filename="C:\Documents and Settings\Claverie Marc\Bureau\b-info.png"
         transform="scale(1.1020865,0.9073698)"
         sodipodi:linespacing="125%"
         id="text3461"
         y="58.879303"
         x="213.83983"
         style="font-style:normal;font-variant:normal;font-weight:bold;font-stretch:normal;font-size:32.40733719px;line-height:125%;font-family:'Trebuchet MS';-inkscape-font-specification:'Trebuchet MS';text-align:start;writing-mode:lr-tb;text-anchor:start;fill:#28170b;fill-opacity:1;stroke:none;stroke-width:1px;stroke-linecap:butt;stroke-linejoin:miter;stroke-opacity:1"
         xml:space="preserve"><tspan
           style="font-style:normal;font-variant:normal;font-weight:normal;font-stretch:normal;font-size:21.22250938px;font-family:'Lucida Sans Unicode';-inkscape-font-specification:'Lucida Sans Unicode';fill:#28170b;fill-opacity:1"
           y="58.879303"
           x="213.83983"
           id="tspan3463"
           sodipodi:role="line">info</tspan></text>
      <path
         style="font-style:normal;font-variant:normal;font-weight:bold;font-stretch:normal;font-size:81.36701965px;line-height:125%;font-family:'Trebuchet MS';-inkscape-font-specification:'Trebuchet MS';text-align:start;writing-mode:lr-tb;text-anchor:start;fill:#28170b;fill-opacity:1;stroke:none;stroke-width:1px;stroke-linecap:butt;stroke-linejoin:miter;stroke-opacity:1"
         d="m 206.15908,61.785514 0,-22.843768 3.43554,0 0,10.007607 c 1.40676,-2.182423 3.51692,-3.273631 6.33046,-3.273652 2.27871,2.1e-5 4.06915,0.684423 5.37132,2.053208 1.31372,1.368829 1.97062,3.240176 1.97062,5.614036 0,2.584457 -0.74409,4.67118 -2.23223,6.260134 -1.47653,1.579403 -3.42392,2.369091 -5.84215,2.369091 -2.24387,0 -4.10988,-0.708325 -5.59802,-2.124996 l -0.41855,1.93834 -3.01699,0 m 3.43554,-3.891044 c 1.76717,1.301804 3.45296,1.952704 5.0574,1.952704 1.58114,0 2.80189,-0.540819 3.66225,-1.622468 0.86031,-1.09121 1.29049,-2.622749 1.29051,-4.594597 -2e-5,-3.656524 -1.46491,-5.484796 -4.3947,-5.484817 -1.91834,2.1e-5 -3.79016,0.856727 -5.61546,2.570121 l 0,7.179057"
         id="path3465"
         inkscape:connector-curvature="0" />
      <text
         inkscape:export-ydpi="203.55"
         inkscape:export-xdpi="203.55"
         inkscape:export-filename="C:\Documents and Settings\Claverie Marc\Bureau\b-info.png"
         transform="matrix(0.98879997,-0.03643632,0,1.0113269,0,0)"
         sodipodi:linespacing="125%"
         id="text3467"
         y="73.830048"
         x="237.9422"
         style="font-style:italic;font-variant:normal;font-weight:normal;font-stretch:normal;font-size:18.3368454px;line-height:125%;font-family:'Apple LiGothic';-inkscape-font-specification:'Apple LiGothic Italic';text-align:start;writing-mode:lr-tb;text-anchor:start;fill:#ffffff;fill-opacity:1;stroke:none;stroke-width:1px;stroke-linecap:butt;stroke-linejoin:miter;stroke-opacity:1"
         xml:space="preserve"><tspan
           sodipodi:role="line"
           id="tspan3469"
           x="237.9422"
           y="73.830048">service</tspan></text>
      <path
         id="path3471"
         d="m 197.50343,24.26625 c -7.29322,0.335215 -13.21444,6.455028 -13.26573,13.755778 l -0.21002,26.35648 c -0.0513,7.300778 6.35753,15.456071 13.65077,15.120864 l 19.5661,-3.465199 c 4.19893,-0.192986 7.92976,-2.336771 10.36059,-5.495301 1.27947,-0.714859 2.31,-1.666169 3.04518,-2.975171 1.10274,-1.963509 1.57507,-4.634828 1.57507,-8.470483 l 0.10501,-15.785893 c 0,-6.152149 -2.15112,-10.204483 -5.3553,-12.215691 -2.35427,-2.076561 -5.63956,-4.114258 -9.34552,-4.655262 L 197.50343,24.26625 Z m 4.72527,4.725266 0.035,0 21.84124,2.030115 0.035,0 c 4.07409,1.113602 7.1054,4.926297 7.1054,12.285694 l -0.10499,15.785893 c 0,3.744506 -0.47934,6.243708 -1.43508,7.945451 -0.93837,1.670813 -2.36064,2.64005 -4.44526,3.325185 l -0.035,0 -22.96131,2.590159 c -0.0108,0 -0.0242,8.4e-5 -0.035,0 -1.83268,-0.01568 -3.55458,-1.355044 -4.86526,-3.710231 -1.31842,-2.369056 -2.13513,-5.707386 -2.13513,-9.415522 l 0,-17.711003 c 0,-3.708126 0.81671,-7.046475 2.13513,-9.415529 1.31068,-2.355192 3.03256,-3.694541 4.86526,-3.710212 z"
         style="fill:#28170b;fill-opacity:1;stroke:none;stroke-width:0.31629816;stroke-linecap:butt;stroke-linejoin:miter;stroke-miterlimit:4;stroke-dashoffset:0;stroke-opacity:1"
         inkscape:connector-curvature="0" />
    </g>
    <flowRoot
       inkscape:export-ydpi="89"
       inkscape:export-xdpi="89"
       inkscape:export-filename="/Users/brunoboissonnet/Documents/autoentrepreneur/site/css/images/slogan2.png"
       xml:space="preserve"
       id="flowRoot3476"
       style="font-style:italic;font-variant:normal;font-weight:normal;font-stretch:normal;font-size:19.9327755px;line-height:125%;font-family:Georgia;-inkscape-font-specification:'Georgia Italic';text-align:start;writing-mode:lr-tb;text-anchor:start;fill:#28170b;fill-opacity:1;stroke:none;stroke-width:1px;stroke-linecap:butt;stroke-linejoin:miter;stroke-opacity:1"
       transform="matrix(0.5082816,0,0,0.5082816,-49.234143,-16.019022)"><flowRegion
         id="flowRegion3478"><rect
           style="font-style:italic;font-variant:normal;font-weight:normal;font-stretch:normal;font-size:19.9327755px;line-height:125%;font-family:Georgia;-inkscape-font-specification:'Georgia Italic';text-align:start;writing-mode:lr-tb;text-anchor:start;fill:#28170b;fill-opacity:1"
           id="rect3480"
           width="281.41306"
           height="35.228901"
           x="152.56673"
           y="52.237518" /></flowRegion><flowPara
         id="flowPara3482">Votre informaticien à domicile</flowPara></flowRoot>  </g>
</svg>
