<?xml version="1.0" encoding="UTF-8" standalone="no"?>
<!-- Created with Inkscape (http://www.inkscape.org/) -->

<svg
   xmlns:dc="http://purl.org/dc/elements/1.1/"
   xmlns:cc="http://creativecommons.org/ns#"
   xmlns:rdf="http://www.w3.org/1999/02/22-rdf-syntax-ns#"
   xmlns:svg="http://www.w3.org/2000/svg"
   xmlns="http://www.w3.org/2000/svg"
   xmlns:xlink="http://www.w3.org/1999/xlink"
   xmlns:sodipodi="http://sodipodi.sourceforge.net/DTD/sodipodi-0.dtd"
   xmlns:inkscape="http://www.inkscape.org/namespaces/inkscape"
   width="95mm"
   height="65mm"
   id="svg3217"
   sodipodi:version="0.32"
   inkscape:version="0.91 r13725"
   version="1.0"
   sodipodi:docname="carte de visiste_v1.1.svg"
   inkscape:output_extension="org.inkscape.output.svg.inkscape"
   inkscape:export-filename="/Users/brunoboissonnet/Documents/binfoservice/carte de visite/carte de visiste_v1.1.png"
   inkscape:export-xdpi="89"
   inkscape:export-ydpi="89">
  <defs
     id="defs3219">
    <linearGradient
       id="linearGradient3336">
      <stop
         style="stop-color:#28170b;stop-opacity:1;"
         offset="0"
         id="stop3338" />
      <stop
         style="stop-color:#000000;stop-opacity:0;"
         offset="1"
         id="stop3340" />
    </linearGradient>
    <linearGradient
       id="linearGradient3805">
      <stop
         style="stop-color:#28170b;stop-opacity:1;"
         offset="0"
         id="stop3807" />
      <stop
         id="stop3323"
         offset="1"
         style="stop-color:#140b05;stop-opacity:0.49803922;" />
    </linearGradient>
    <linearGradient
       id="linearGradient3797">
      <stop
         style="stop-color:#000000;stop-opacity:1;"
         offset="0"
         id="stop3799" />
      <stop
         style="stop-color:#000000;stop-opacity:0;"
         offset="1"
         id="stop3801" />
    </linearGradient>
    <inkscape:perspective
       sodipodi:type="inkscape:persp3d"
       inkscape:vp_x="0 : 526.18109 : 1"
       inkscape:vp_y="0 : 1000 : 0"
       inkscape:vp_z="744.09448 : 526.18109 : 1"
       inkscape:persp3d-origin="372.04724 : 350.78739 : 1"
       id="perspective3225" />
    <linearGradient
       inkscape:collect="always"
       xlink:href="#linearGradient3797"
       id="linearGradient3803"
       x1="761.57123"
       y1="291.89624"
       x2="360.97174"
       y2="542.1825"
       gradientUnits="userSpaceOnUse" />
    <linearGradient
       inkscape:collect="always"
       xlink:href="#linearGradient3805"
       id="linearGradient3811"
       x1="506.80038"
       y1="615.9707"
       x2="298.10413"
       y2="606.47168"
       gradientUnits="userSpaceOnUse" />
    <linearGradient
       inkscape:collect="always"
       xlink:href="#linearGradient3805"
       id="linearGradient3813"
       gradientUnits="userSpaceOnUse"
       x1="373.25977"
       y1="509.65094"
       x2="253.53117"
       y2="634.54425"
       gradientTransform="matrix(0.9999492,0,-1.5449395e-8,1.137935,-171.37379,-118.10748)" />
    <linearGradient
       inkscape:collect="always"
       xlink:href="#linearGradient3797"
       id="linearGradient3823"
       gradientUnits="userSpaceOnUse"
       x1="761.57123"
       y1="291.89624"
       x2="360.97174"
       y2="542.1825"
       gradientTransform="translate(-193.25245,-26.053587)" />
    <linearGradient
       inkscape:collect="always"
       xlink:href="#linearGradient3805"
       id="linearGradient3833"
       gradientUnits="userSpaceOnUse"
       gradientTransform="matrix(0.9999492,0,-1.5449395e-8,1.137935,-171.37379,-118.10748)"
       x1="373.25977"
       y1="509.65094"
       x2="253.53117"
       y2="634.54425" />
    <linearGradient
       inkscape:collect="always"
       xlink:href="#linearGradient3797"
       id="linearGradient3835"
       gradientUnits="userSpaceOnUse"
       gradientTransform="translate(-193.25245,-26.053587)"
       x1="761.57123"
       y1="291.89624"
       x2="360.97174"
       y2="542.1825" />
    <linearGradient
       inkscape:collect="always"
       xlink:href="#linearGradient3797"
       id="linearGradient3858"
       gradientUnits="userSpaceOnUse"
       gradientTransform="matrix(0.4596461,0,0,0.4596461,-180.12655,188.50109)"
       x1="761.57123"
       y1="291.89624"
       x2="360.97174"
       y2="542.1825" />
    <linearGradient
       inkscape:collect="always"
       xlink:href="#linearGradient3805"
       id="linearGradient3861"
       gradientUnits="userSpaceOnUse"
       gradientTransform="matrix(0.4596227,0,0,0.5230474,-165.89037,145.04934)"
       x1="373.25977"
       y1="509.65094"
       x2="253.53117"
       y2="634.54425" />
    <linearGradient
       inkscape:collect="always"
       xlink:href="#linearGradient3805"
       id="linearGradient3293"
       gradientUnits="userSpaceOnUse"
       gradientTransform="matrix(0.4596227,0,0,0.5230474,-165.89037,145.04934)"
       x1="373.25977"
       y1="509.65094"
       x2="253.53117"
       y2="634.54425" />
    <linearGradient
       inkscape:collect="always"
       xlink:href="#linearGradient3797"
       id="linearGradient3295"
       gradientUnits="userSpaceOnUse"
       gradientTransform="matrix(0.4596461,0,0,0.4596461,-180.12655,188.50109)"
       x1="761.57123"
       y1="291.89624"
       x2="360.97174"
       y2="542.1825" />
    <linearGradient
       inkscape:collect="always"
       xlink:href="#linearGradient3797"
       id="linearGradient3302"
       gradientUnits="userSpaceOnUse"
       gradientTransform="matrix(0.4596461,0,0,0.4596461,-127.43381,-58.705676)"
       x1="761.57123"
       y1="291.89624"
       x2="360.97174"
       y2="542.1825" />
  </defs>
  <sodipodi:namedview
     id="base"
     pagecolor="#fffff3"
     bordercolor="#666666"
     borderopacity="1.0"
     inkscape:pageopacity="0"
     inkscape:pageshadow="2"
     inkscape:zoom="2.3023066"
     inkscape:cx="143.86289"
     inkscape:cy="150.64494"
     inkscape:document-units="mm"
     inkscape:current-layer="layer1"
     showgrid="false"
     inkscape:window-width="1270"
     inkscape:window-height="957"
     inkscape:window-x="162"
     inkscape:window-y="36"
     units="mm"
     guidetolerance="10000"
     showguides="true"
     inkscape:guide-bbox="true"
     inkscape:window-maximized="0">
    <sodipodi:guide
       position="133.5042,230.42125"
       orientation="0,1"
       id="guide3411" />
    <sodipodi:guide
       position="133.5042,230.42125"
       orientation="0,1"
       id="guide3413" />
    <sodipodi:guide
       position="147.24364,0.43434702"
       orientation="0,1"
       id="guide3415" />
    <sodipodi:guide
       position="147.24364,212.83004"
       orientation="0,1"
       id="guide3417" />
    <sodipodi:guide
       position="141.16278,17.808228"
       orientation="0,1"
       id="guide3419" />
    <sodipodi:guide
       position="0.43434702,124.22325"
       orientation="1,0"
       id="guide3421" />
    <sodipodi:guide
       position="336.61894,111.19284"
       orientation="1,0"
       id="guide3423" />
    <sodipodi:guide
       position="16.939534,120.74847"
       orientation="1,0"
       id="guide3425" />
    <sodipodi:guide
       position="318.81071,116.405"
       orientation="1,0"
       id="guide3427" />
    <sodipodi:guide
       position="119.01108,201.97136"
       orientation="0,1"
       id="guide3429" />
    <sodipodi:guide
       position="131.1728,28.232556"
       orientation="0,1"
       id="guide3431" />
    <sodipodi:guide
       position="28.232556,115.53631"
       orientation="1,0"
       id="guide3433" />
    <sodipodi:guide
       position="308.38638,99.03112"
       orientation="1,0"
       id="guide3435" />
  </sodipodi:namedview>
  <metadata
     id="metadata3222">
    <rdf:RDF>
      <cc:Work
         rdf:about="">
        <dc:format>image/svg+xml</dc:format>
        <dc:type
           rdf:resource="http://purl.org/dc/dcmitype/StillImage" />
        <dc:title></dc:title>
      </cc:Work>
    </rdf:RDF>
  </metadata>
  <g
     inkscape:label="Calque 1"
     inkscape:groupmode="layer"
     id="layer1"
     transform="translate(-379.53592,38.585229)">
    <rect
       y="-38.011883"
       x="379.79251"
       height="229.18761"
       width="336.75433"
       id="rect4268"
       style="fill:#ffffff;fill-opacity:1;stroke:none;stroke-width:13.19999981;stroke-linecap:round;stroke-linejoin:round;stroke-miterlimit:4;stroke-dasharray:none;stroke-dashoffset:0;stroke-opacity:1" />
    <flowRoot
       xml:space="preserve"
       id="flowRoot4270"
       style="font-style:normal;font-variant:normal;font-weight:normal;font-stretch:normal;font-size:12px;line-height:125%;font-family:AppleGothic;-inkscape-font-specification:AppleGothic;text-align:start;writing-mode:lr-tb;text-anchor:start;fill:#28170b;fill-opacity:1;stroke:none;stroke-width:1px;stroke-linecap:butt;stroke-linejoin:miter;stroke-opacity:1"
       transform="matrix(1.0073197,0,0,1.0073197,340.32355,-520.48189)"><flowRegion
         id="flowRegion4272"><rect
           style="font-style:normal;font-variant:normal;font-weight:normal;font-stretch:normal;font-size:12px;line-height:125%;font-family:AppleGothic;-inkscape-font-specification:AppleGothic;text-align:start;writing-mode:lr-tb;text-anchor:start;fill:#28170b;fill-opacity:1"
           id="rect4274"
           width="730.64557"
           height="137.60168"
           x="69.769867"
           y="577.422" /></flowRegion><flowPara
         id="flowPara4276">04.90.87.76.62</flowPara><flowPara
         id="flowPara4278">06.61.58.36.93</flowPara><flowPara
         id="flowPara4280">contact@binfoservice.fr</flowPara><flowPara
         id="flowPara4282">www.binfoservice.fr</flowPara><flowPara
         id="flowPara4284">24 boulevard Jean Rey</flowPara><flowPara
         id="flowPara4286">30133 Les Angles</flowPara></flowRoot>    <rect
       style="opacity:1;fill:#ba7301;fill-opacity:1;stroke:none;stroke-width:3.02900004;stroke-linecap:round;stroke-linejoin:round;stroke-miterlimit:4;stroke-dasharray:none;stroke-dashoffset:0;stroke-opacity:1"
       id="rect4349"
       width="335.88541"
       height="77.312042"
       x="380.1539"
       y="-38.465569" />
    <flowRoot
       transform="translate(393.38842,-38.796566)"
       style="font-style:normal;font-variant:normal;font-weight:bold;font-stretch:normal;font-size:18px;line-height:100%;font-family:AppleGothic;-inkscape-font-specification:'AppleGothic Bold';text-align:start;writing-mode:lr-tb;text-anchor:start;fill:#ffffff;fill-opacity:1;stroke:none;stroke-width:1px;stroke-linecap:butt;stroke-linejoin:miter;stroke-opacity:1"
       id="flowRoot4288"
       xml:space="preserve"><flowRegion
         id="flowRegion4290"><rect
           style="font-style:normal;font-variant:normal;font-weight:bold;font-stretch:normal;font-size:18px;line-height:100%;font-family:AppleGothic;-inkscape-font-specification:'AppleGothic Bold';text-align:start;writing-mode:lr-tb;text-anchor:start;fill:#ffffff;fill-opacity:1"
           y="43.877186"
           x="17.210348"
           height="17.992636"
           width="156.84885"
           id="rect4292" /></flowRegion><flowPara
         id="flowPara4294">Bruno Boissonnet</flowPara></flowRoot>    <path
       inkscape:connector-curvature="0"
       inkscape:export-ydpi="203.55"
       inkscape:export-xdpi="203.55"
       inkscape:export-filename="C:\Documents and Settings\Claverie Marc\Bureau\b-info.png"
       sodipodi:nodetypes="ccccccccccccccccc"
       id="path4296"
       d="m 642.81174,83.981704 c 0,0 -1.25523,-1.65394 -3.48857,-2.10059 -1.28577,-0.25718 -14.57363,-1.778543 -16.69501,-1.051197 -3.14299,1.077597 -4.19996,4.995727 -4.24279,6.667227 l 0,18.122806 c 0.5455,4.97011 3.74503,6.89779 5.03074,6.90967 -0.0606,0 15.65919,-1.91183 16.0014,-2.00015 1.87893,-0.48489 2.96994,-2.30323 2.96994,-2.30323 0,0 -1.28655,2.97747 -2.90932,4.30342 -1.39409,1.03039 -1.69714,0.84853 -2.30324,1.03039 -1.51946,0.45582 -14.05316,2.87619 -15.45591,2.96995 -5.03074,0.30304 -10.84938,-3.48374 -10.98104,-8.34788 -0.0606,-2.48505 -0.0649,-22.534496 -0.0649,-22.534496 0,-5.528763 6.38595,-8.525858 10.18521,-8.272557 1.92865,0.128578 14.6335,1.967711 16.34785,2.267718 4.08525,0.714921 5.36321,3.672179 5.36321,3.672179 l 0.24245,0.66674 z"
       style="fill:#000000;fill-opacity:0.15294118;fill-rule:evenodd;stroke:none;stroke-width:1px;stroke-linecap:butt;stroke-linejoin:round;stroke-opacity:1" />
    <path
       inkscape:connector-curvature="0"
       inkscape:export-ydpi="203.55"
       inkscape:export-xdpi="203.55"
       inkscape:export-filename="C:\Documents and Settings\Claverie Marc\Bureau\b-info.png"
       sodipodi:nodetypes="ccccccccccccccccc"
       id="path4298"
       d="m 663.71342,96.844284 c 0,0 -1.25522,-1.65393 -3.48857,-2.10059 -1.28577,-0.25716 -14.57362,-1.77854 -16.69502,-1.05119 -3.14298,1.0776 -4.19995,4.99574 -4.24279,6.667226 l 0,18.12281 c 0.5455,4.97012 3.74505,6.89778 5.03075,6.90967 -0.0606,0 15.65918,-1.91184 16.00139,-2.00014 1.87894,-0.48491 2.96996,-2.30325 2.96996,-2.30325 0,0 -1.28655,2.97747 -2.90934,4.30342 -1.39408,1.03039 -1.69712,0.84853 -2.30324,1.03039 -1.51945,0.45582 -14.05316,2.8762 -15.45591,2.96996 -5.03074,0.30303 -10.84938,-3.48374 -10.98104,-8.34789 -0.0606,-2.48505 -0.0649,-22.534496 -0.0649,-22.534496 0,-5.52876 6.38593,-8.52584 10.18521,-8.27254 1.92863,0.12856 14.63349,1.96771 16.34783,2.26771 4.08526,0.71493 5.36321,3.67217 5.36321,3.67217 l 0.24246,0.66674 z"
       style="fill:#000000;fill-opacity:0.15294118;fill-rule:evenodd;stroke:none;stroke-width:1px;stroke-linecap:butt;stroke-linejoin:round;stroke-opacity:1" />
    <path
       inkscape:connector-curvature="0"
       inkscape:export-ydpi="203.55"
       inkscape:export-xdpi="203.55"
       inkscape:export-filename="C:\Documents and Settings\Claverie Marc\Bureau\b-info.png"
       sodipodi:nodetypes="ccccccccccccccccc"
       id="path4300"
       d="m 630.75309,108.09904 c 0,0 -1.25523,-1.65394 -3.48858,-2.10059 -1.28577,-0.25717 -14.57363,-1.77855 -16.69501,-1.05119 -3.14299,1.07758 -4.19996,4.99573 -4.24279,6.66722 l 0,18.12281 c 0.54549,4.97012 3.74504,6.8978 5.03074,6.90968 -0.0606,0 15.65919,-1.91185 16.0014,-2.00016 1.87893,-0.48489 2.96995,-2.30324 2.96995,-2.30324 0,0 -1.28657,2.97747 -2.90933,4.30342 -1.39409,1.0304 -1.69713,0.84855 -2.30325,1.0304 -1.51945,0.45581 -14.05315,2.87619 -15.45591,2.96994 -5.03074,0.30306 -10.84937,-3.48373 -10.98103,-8.34787 -0.0606,-2.48504 -0.0649,-22.53449 -0.0649,-22.53449 0,-5.52877 6.38595,-8.52587 10.18521,-8.27257 1.92865,0.12858 14.6335,1.96772 16.34785,2.26773 4.08525,0.71492 5.3632,3.67218 5.3632,3.67218 l 0.24247,0.66673 z"
       style="fill:#000000;fill-opacity:0.15294118;fill-rule:evenodd;stroke:none;stroke-width:1px;stroke-linecap:butt;stroke-linejoin:round;stroke-opacity:1" />
    <text
       inkscape:export-ydpi="203.55"
       inkscape:export-xdpi="203.55"
       inkscape:export-filename="C:\Documents and Settings\Claverie Marc\Bureau\b-info.png"
       transform="scale(1.1020865,0.9073698)"
       sodipodi:linespacing="125%"
       id="text4302"
       y="104.19411"
       x="576.39972"
       style="font-style:normal;font-variant:normal;font-weight:bold;font-stretch:normal;font-size:32.40733719px;line-height:125%;font-family:'Trebuchet MS';-inkscape-font-specification:'Trebuchet MS';text-align:start;writing-mode:lr-tb;text-anchor:start;fill:#28170b;fill-opacity:1;stroke:none;stroke-width:1px;stroke-linecap:butt;stroke-linejoin:miter;stroke-opacity:1"
       xml:space="preserve"><tspan
         style="font-style:normal;font-variant:normal;font-weight:normal;font-stretch:normal;font-size:21.22250938px;font-family:'Lucida Sans Unicode';-inkscape-font-specification:'Lucida Sans Unicode';fill:#28170b;fill-opacity:1"
         y="104.19411"
         x="576.39972"
         id="tspan4304"
         sodipodi:role="line">info</tspan></text>
    <path
       inkscape:connector-curvature="0"
       style="font-style:normal;font-variant:normal;font-weight:bold;font-stretch:normal;font-size:81.36701965px;line-height:125%;font-family:'Trebuchet MS';-inkscape-font-specification:'Trebuchet MS';text-align:start;writing-mode:lr-tb;text-anchor:start;fill:#28170b;fill-opacity:1;stroke:none;stroke-width:1px;stroke-linecap:butt;stroke-linejoin:miter;stroke-opacity:1"
       d="m 605.73145,102.90278 0,-22.843763 3.43554,0 0,10.007607 c 1.40676,-2.18242 3.51692,-3.27363 6.33046,-3.27365 2.27871,2e-5 4.06915,0.68442 5.37132,2.05321 1.31372,1.36883 1.97062,3.24017 1.97062,5.61403 0,2.58446 -0.74409,4.67118 -2.23223,6.260136 -1.47653,1.5794 -3.42392,2.36909 -5.84215,2.36909 -2.24387,0 -4.10988,-0.70833 -5.59802,-2.125 l -0.41855,1.93834 -3.01699,0 m 3.43554,-3.891036 c 1.76717,1.301796 3.45296,1.952696 5.0574,1.952696 1.58114,0 2.80189,-0.54082 3.66225,-1.622466 0.86031,-1.09121 1.29049,-2.62275 1.29051,-4.59459 -2e-5,-3.65653 -1.46491,-5.4848 -4.3947,-5.48482 -1.91834,2e-5 -3.79016,0.85673 -5.61546,2.57012 l 0,7.17906"
       id="path4306" />
    <text
       inkscape:export-ydpi="203.55"
       inkscape:export-xdpi="203.55"
       inkscape:export-filename="C:\Documents and Settings\Claverie Marc\Bureau\b-info.png"
       transform="matrix(0.98879998,-0.03643632,0,1.0113269,0,0)"
       sodipodi:linespacing="125%"
       id="text4308"
       y="129.04575"
       x="642.04053"
       style="font-style:italic;font-variant:normal;font-weight:normal;font-stretch:normal;font-size:18.3368454px;line-height:125%;font-family:'Apple LiGothic';-inkscape-font-specification:'Apple LiGothic Italic';text-align:start;writing-mode:lr-tb;text-anchor:start;fill:#808080;fill-opacity:1;stroke:none;stroke-width:1px;stroke-linecap:butt;stroke-linejoin:miter;stroke-opacity:1"
       xml:space="preserve"><tspan
         sodipodi:role="line"
         id="tspan4310"
         x="642.04053"
         y="129.04575">service</tspan></text>
    <path
       inkscape:connector-curvature="0"
       id="path4312"
       d="m 597.0758,65.383521 c -7.29322,0.335215 -13.21444,6.455028 -13.26573,13.755778 l -0.21002,26.356471 c -0.0513,7.30078 6.35753,15.45608 13.65077,15.12087 l 19.5661,-3.4652 c 4.19893,-0.19299 7.92976,-2.33677 10.36059,-5.4953 1.27947,-0.71486 2.31,-1.66617 3.04518,-2.97517 1.10274,-1.96351 1.57507,-4.63483 1.57507,-8.47048 l 0.10501,-15.785896 c 0,-6.152147 -2.15112,-10.204481 -5.3553,-12.215689 -2.35427,-2.076561 -5.63956,-4.114258 -9.34552,-4.655262 L 597.0758,65.383521 Z m 4.72527,4.725266 0.035,0 21.84124,2.030115 0.035,0 c 4.07409,1.113602 7.1054,4.926297 7.1054,12.285692 l -0.10499,15.785896 c 0,3.7445 -0.47934,6.2437 -1.43508,7.94545 -0.93837,1.67081 -2.36064,2.64005 -4.44526,3.32518 l -0.035,0 -22.96131,2.59016 c -0.0108,0 -0.0242,8e-5 -0.035,0 -1.83268,-0.0157 -3.55458,-1.35504 -4.86526,-3.71023 -1.31842,-2.36906 -2.13513,-5.70739 -2.13513,-9.41552 l 0,-17.711006 c 0,-3.708122 0.81671,-7.046471 2.13513,-9.415525 1.31068,-2.355192 3.03256,-3.694541 4.86526,-3.710212 z"
       style="fill:#28170b;fill-opacity:1;stroke:none;stroke-width:0.31629816;stroke-linecap:butt;stroke-linejoin:miter;stroke-miterlimit:4;stroke-dashoffset:0;stroke-opacity:1" />
    <flowRoot
       transform="matrix(0.5082816,0,0,0.5082816,334.33823,-4.901751)"
       style="font-style:italic;font-variant:normal;font-weight:normal;font-stretch:normal;font-size:19.9327755px;line-height:125%;font-family:Georgia;-inkscape-font-specification:'Georgia Italic';text-align:start;writing-mode:lr-tb;text-anchor:start;fill:#28170b;fill-opacity:1;stroke:none;stroke-width:1px;stroke-linecap:butt;stroke-linejoin:miter;stroke-opacity:1"
       id="flowRoot4314"
       xml:space="preserve"
       inkscape:export-filename="/Users/brunoboissonnet/Documents/autoentrepreneur/site/css/images/slogan2.png"
       inkscape:export-xdpi="89"
       inkscape:export-ydpi="89"><flowRegion
         id="flowRegion4316"><rect
           y="52.237518"
           x="152.56673"
           height="35.228901"
           width="281.41306"
           id="rect4318"
           style="font-style:italic;font-variant:normal;font-weight:normal;font-stretch:normal;font-size:19.9327755px;line-height:125%;font-family:Georgia;-inkscape-font-specification:'Georgia Italic';text-align:start;writing-mode:lr-tb;text-anchor:start;fill:#28170b;fill-opacity:1" /></flowRegion><flowPara
         id="flowPara4320">Votre informaticien à domicile</flowPara></flowRoot>  </g>
</svg>
